<?xml version="1.0" standalone="no"?>
<!DOCTYPE svg PUBLIC "-//W3C//DTD SVG 20010904//EN"
 "http://www.w3.org/TR/2001/REC-SVG-20010904/DTD/svg10.dtd">
<svg version="1.0" xmlns="http://www.w3.org/2000/svg"
 width="735.000000pt" height="448.000000pt" viewBox="0 0 735.000000 448.000000"
 preserveAspectRatio="xMidYMid meet">

<g transform="translate(0.000000,448.000000) scale(0.100000,-0.100000)"
fill="#000000" stroke="none">
<path d="M0 3305 l0 -1176 23 12 c12 7 48 29 79 51 58 39 78 46 78 28 0 -17
32 -11 151 26 66 21 137 51 168 72 30 19 80 48 112 64 58 29 99 68 99 94 0 30
179 87 203 65 4 -4 -20 -23 -54 -42 -34 -18 -69 -45 -79 -59 l-18 -25 74 -2
c56 -2 84 2 121 18 77 34 294 106 338 113 22 3 81 11 130 16 50 6 104 13 120
16 22 4 26 3 15 -5 -31 -21 4 -24 103 -7 147 26 211 31 203 17 -12 -19 32 -12
82 13 127 64 372 109 487 88 57 -10 66 -8 168 26 100 33 109 39 129 74 12 21
37 47 55 58 19 11 40 35 48 53 15 37 42 64 52 53 4 -3 -3 -27 -15 -51 -37 -77
-28 -89 48 -59 35 14 51 15 119 4 74 -11 111 -24 101 -33 -3 -2 -25 -12 -50
-20 l-45 -17 110 4 c96 3 127 8 244 45 82 26 190 71 282 116 119 60 158 75
194 75 25 0 45 -4 45 -10 0 -17 22 -12 109 25 46 20 85 34 87 32 2 -2 -23 -31
-56 -65 -57 -58 -72 -82 -51 -82 31 0 446 112 460 123 12 11 58 17 176 22 149
7 176 11 390 65 127 31 253 69 281 83 28 14 89 42 135 61 46 19 113 50 148 69
l64 35 35 -24 c19 -13 45 -24 58 -24 45 0 54 -10 54 -60 0 -52 -10 -60 -76
-60 -18 0 -85 -11 -150 -25 -66 -14 -140 -30 -167 -35 -68 -14 -88 -26 -82
-53 40 -176 32 -434 -20 -632 -32 -120 -233 -415 -384 -564 -85 -83 -202 -175
-277 -218 l-39 -22 35 5 c47 8 203 69 268 105 28 16 52 27 52 25 0 -3 -60 -51
-132 -107 -73 -56 -140 -109 -148 -117 -13 -13 -13 -14 5 -7 77 30 129 34 209
18 67 -14 92 -14 151 -4 38 6 138 14 220 16 90 3 176 12 216 21 69 18 81 29
136 129 31 56 28 35 -8 -62 -18 -46 -30 -86 -27 -88 2 -3 15 -6 29 -7 21 -3
30 9 81 112 31 63 71 151 88 195 l30 80 -5 -105 c-4 -58 -13 -139 -21 -180
-20 -104 -21 -100 36 -100 51 0 57 -4 40 -30 -7 -11 -30 -15 -92 -16 -61 -1
-95 -6 -127 -22 l-45 -20 -49 25 c-49 24 -52 25 -151 13 -110 -12 -485 -16
-529 -5 -18 5 -52 0 -95 -13 -40 -13 -111 -23 -177 -27 -161 -9 -382 -33 -525
-56 -69 -12 -154 -25 -190 -29 -54 -7 -189 -33 -287 -55 -50 -11 -2 -55 60
-55 41 0 4 -14 -120 -46 -71 -18 -141 -40 -158 -48 -44 -23 -485 -156 -517
-156 -33 0 -186 102 -341 226 l-109 86 -91 -6 c-51 -4 -157 -23 -237 -43
l-145 -36 -80 17 -80 16 -135 -45 c-166 -56 -320 -95 -380 -95 -25 0 -110 10
-189 22 -142 22 -144 22 -210 3 -36 -10 -106 -22 -156 -27 -49 -5 -116 -15
-147 -23 -32 -7 -58 -10 -58 -7 0 3 10 16 21 29 19 20 20 23 6 29 -9 3 -40 1
-68 -5 -29 -6 -54 -10 -56 -7 -2 2 16 14 41 27 25 12 56 33 68 47 l23 25 -50
-8 c-92 -13 -279 -65 -385 -108 l-105 -42 -3 -557 -2 -558 3675 0 3675 0 0
840 0 840 -27 11 c-16 6 -57 9 -94 6 -43 -4 -70 -2 -78 6 -18 18 -13 55 10 78
18 18 28 20 66 14 24 -3 62 -3 84 0 l39 7 0 809 c0 445 -2 809 -5 809 -3 0
-34 -13 -68 -29 -82 -38 -151 -61 -185 -61 -15 0 -99 -25 -186 -55 -88 -30
-162 -55 -165 -55 -3 0 16 15 43 33 81 52 69 59 -51 27 -59 -16 -132 -32 -160
-36 l-53 -7 37 -51 c20 -28 48 -65 60 -82 l24 -32 -76 -46 c-42 -25 -78 -46
-80 -46 -3 0 -28 32 -56 70 -28 39 -52 70 -54 70 -3 0 13 -33 35 -72 22 -40
40 -79 40 -85 0 -29 -17 -9 -54 62 -22 41 -57 102 -78 135 l-37 60 -67 0 c-74
0 -71 9 -35 -90 11 -30 20 -68 20 -85 0 -27 -2 -25 -24 23 -14 30 -29 51 -34
47 -19 -11 -29 29 -20 79 19 103 30 125 63 131 17 4 68 17 112 31 45 13 85 24
88 24 3 0 6 -20 6 -44 0 -64 17 -67 64 -14 l41 45 105 12 c58 6 115 14 128 17
16 5 22 2 22 -9 0 -9 4 -18 9 -22 20 -12 109 18 171 58 35 23 82 50 105 60
l40 18 -55 -51 c-52 -49 -53 -51 -17 -31 47 26 50 26 42 0 -8 -25 -20 -27 173
33 l132 42 0 493 0 493 -344 0 -344 0 18 -48 c10 -26 30 -69 44 -96 43 -81 44
-110 5 -159 -34 -42 -34 -43 -40 -171 -6 -126 -7 -130 -34 -153 -23 -20 -26
-29 -21 -55 3 -18 12 -39 20 -47 34 -39 30 -58 -31 -124 -32 -35 -72 -72 -90
-81 -23 -14 -41 -40 -73 -107 -40 -88 -69 -111 -56 -45 33 178 41 202 78 243
17 18 20 36 20 100 0 94 -15 267 -33 381 -12 76 -12 86 4 110 24 39 104 203
112 230 l6 22 -3295 0 -3296 0 0 -1175z m6438 825 c10 -51 11 -82 2 -144 -8
-56 -8 -82 -1 -89 18 -18 13 -59 -10 -83 -18 -19 -23 -44 -34 -153 -13 -141
-20 -158 -76 -181 -45 -19 -59 -8 -59 48 0 27 5 63 11 79 5 17 9 53 7 79 l-3
49 -13 -60 c-24 -103 -30 -103 -25 0 3 55 3 97 -1 94 -4 -4 -15 -47 -25 -95
-50 -240 -143 -549 -212 -707 -22 -48 -39 -96 -39 -106 0 -9 -21 -42 -47 -72
-91 -106 -211 -305 -242 -401 -8 -23 -28 -50 -54 -70 -23 -18 -82 -71 -132
-119 -49 -47 -103 -94 -118 -104 -43 -28 -26 -28 38 0 32 14 65 23 73 20 8 -3
109 37 226 89 116 51 263 115 326 142 63 26 116 49 118 50 6 3 14 134 9 134
-19 0 -251 -53 -306 -70 -36 -11 -66 -18 -68 -17 -1 2 17 19 40 38 38 32 91
62 332 189 44 23 105 66 135 95 49 47 171 134 434 311 175 117 159 108 151 86
-3 -11 -1 -23 5 -27 19 -11 11 -71 -15 -109 -27 -40 -31 -56 -14 -56 23 0 1
-23 -33 -35 -20 -6 -54 -26 -75 -42 -21 -17 -88 -60 -149 -96 -61 -37 -116
-73 -122 -80 -16 -19 -46 -162 -38 -182 6 -16 8 -16 31 -1 14 9 25 14 25 11 0
-3 51 21 113 54 113 59 173 87 502 226 221 95 218 94 173 60 -38 -28 -47 -48
-28 -60 7 -4 7 -13 0 -26 -9 -16 -7 -21 15 -29 14 -5 25 -12 25 -15 0 -20 -53
-56 -165 -110 -71 -34 -139 -70 -150 -80 l-20 -17 20 6 20 6 -20 -16 c-45 -35
-170 -86 -331 -137 -94 -29 -183 -61 -198 -70 -26 -17 -35 -50 -17 -62 12 -7
-45 -98 -88 -142 -17 -17 -31 -38 -31 -46 0 -8 -7 -20 -15 -27 -8 -7 -15 -18
-15 -25 0 -7 -9 -24 -20 -38 -11 -14 -20 -32 -20 -39 0 -8 -13 -39 -30 -69
-16 -30 -30 -65 -30 -79 0 -15 -21 -53 -49 -91 -49 -65 -65 -105 -82 -208 -5
-33 -16 -62 -27 -71 -10 -8 -42 -51 -72 -95 -29 -44 -72 -100 -95 -125 -23
-25 -57 -67 -76 -95 -64 -96 -130 -155 -172 -155 -22 0 -29 31 -12 50 8 9 15
21 15 27 0 6 24 45 53 88 28 43 64 96 79 118 15 23 41 46 58 53 31 13 59 65
100 180 10 28 25 65 34 83 10 18 31 78 47 134 37 124 139 520 135 524 -2 2
-20 -4 -41 -13 -21 -8 -71 -24 -111 -34 -70 -18 -114 -34 -294 -105 -59 -23
-107 -35 -155 -38 -64 -4 -76 -8 -135 -49 -36 -25 -81 -50 -100 -56 -77 -23
-131 -31 -160 -26 l-31 7 35 23 c19 13 50 45 67 72 18 26 52 69 75 95 23 26
77 98 119 160 42 62 112 162 156 222 165 226 274 398 291 460 12 41 21 132 28
290 6 127 13 268 17 314 6 80 5 83 -13 74 -10 -6 -42 -13 -70 -16 -68 -8 -264
-74 -421 -143 -70 -31 -200 -83 -287 -115 -155 -58 -291 -134 -341 -189 -23
-25 -51 -25 -115 0 -38 15 -56 17 -70 10 -30 -16 -65 -12 -85 10 -11 12 -31
20 -50 20 -21 0 -40 9 -59 29 -15 16 -42 32 -59 35 -18 4 -43 18 -56 32 l-24
25 30 32 c16 18 46 54 68 81 51 64 85 77 219 81 108 4 115 6 231 55 66 28 152
69 192 90 39 22 91 42 115 46 23 4 57 15 74 25 17 11 45 19 62 19 17 0 66 15
109 33 43 19 130 53 193 77 63 23 149 57 191 76 42 19 138 47 220 65 160 35
283 80 355 130 69 49 107 69 124 66 10 -1 19 -24 28 -67z m807 -846 c-22 -19
-72 -50 -111 -69 -59 -29 -82 -35 -137 -35 -36 0 -69 5 -72 10 -3 6 3 10 14
10 39 0 21 19 -21 23 -28 2 -16 4 31 5 41 1 71 5 67 9 -10 10 95 50 156 58 29
4 62 11 73 16 39 16 39 8 0 -27z m-4553 -180 c59 -14 108 -27 108 -30 0 -2
-35 -1 -79 3 -63 5 -91 2 -147 -15 -38 -12 -78 -28 -89 -37 -19 -15 -15 -16
53 -10 39 3 72 4 72 1 0 -10 -191 -67 -216 -64 -15 2 -32 12 -38 23 -6 11 -12
22 -13 24 -1 2 -30 -7 -63 -19 -50 -19 -71 -21 -118 -16 -102 13 -162 0 -162
-35 0 -10 -13 -25 -28 -33 -30 -15 -214 -67 -220 -61 -2 1 22 18 53 36 30 19
106 67 168 108 103 67 178 111 192 111 3 0 5 -9 5 -21 0 -18 4 -20 28 -14 15
3 47 18 72 33 45 27 62 30 274 40 22 1 88 -10 148 -24z m4097 -301 c25 -52 29
-68 19 -74 -21 -14 -24 -12 -63 53 -34 58 -35 63 -19 75 10 7 20 13 24 13 3 0
20 -30 39 -67z m-87 -26 c29 -72 31 -77 19 -77 -6 0 -11 6 -11 13 0 6 -14 30
-30 51 -16 21 -27 43 -24 47 12 20 30 6 46 -34z m-757 -81 c-7 -80 -10 -88
-36 -107 l-29 -20 0 69 c0 61 3 74 31 111 17 24 33 41 36 38 3 -3 2 -44 -2
-91z m-4675 -3 c0 -5 -23 -21 -50 -36 -28 -16 -50 -35 -50 -43 0 -12 -7 -14
-30 -9 -19 4 -50 -1 -89 -15 -33 -12 -65 -20 -72 -18 -20 7 100 87 140 93 20
3 59 12 86 19 64 17 65 17 65 9z m5717 -300 c-2 -2 -18 19 -35 46 -16 27 -28
52 -24 55 3 4 18 -17 34 -46 15 -28 26 -53 25 -55z m-870 41 c-3 -3 -12 -4
-19 -1 -8 3 -5 6 6 6 11 1 17 -2 13 -5z m-207 -33 c0 -32 -18 -71 -33 -71 -13
0 -13 40 -2 78 7 20 35 14 35 -7z m-97 -377 c-29 -87 -43 -93 -18 -7 22 81 23
83 34 83 5 0 -2 -34 -16 -76z m1264 -131 c6 -3 19 10 28 27 13 25 18 28 29 17
14 -14 15 -8 -20 -230 -18 -117 -34 -148 -34 -68 0 28 -4 51 -8 51 -4 0 -32
-61 -61 -136 l-53 -136 -62 -46 c-35 -26 -117 -91 -182 -144 -65 -54 -150
-123 -189 -154 -38 -32 -133 -120 -209 -196 -77 -76 -143 -138 -148 -138 -15
0 -8 20 25 68 50 71 137 212 137 220 0 9 179 194 248 256 29 26 65 66 80 89
14 23 46 68 70 100 43 56 108 222 126 322 13 66 51 125 82 125 8 0 14 -9 14
-20 0 -11 4 -20 8 -20 14 0 92 61 93 73 1 7 4 -3 8 -22 3 -19 11 -36 18 -38z
m-430 -229 l-7 -136 -45 -64 c-44 -61 -65 -78 -65 -52 0 7 -10 78 -21 159 -12
81 -19 154 -16 163 8 21 96 65 131 66 l29 0 -6 -136z m153 31 c0 -2 -5 -16
-12 -30 -8 -19 -19 -25 -42 -25 -17 0 -42 -3 -54 -7 -21 -5 -23 -3 -20 18 2
20 12 25 58 35 70 15 70 15 70 9z m-446 -62 c3 -16 13 -83 22 -150 13 -99 14
-126 4 -138 -7 -8 -18 -15 -24 -15 -13 0 -146 257 -146 281 0 19 61 47 107 48
27 1 32 -3 37 -26z m114 -16 c3 -14 -4 -17 -41 -17 -56 0 -75 26 -24 33 49 6
61 3 65 -16z m-279 -31 c-2 -2 -28 -6 -56 -8 -39 -4 -53 -2 -53 8 0 8 17 14
48 16 42 3 73 -5 61 -16z m-994 -305 c28 -5 69 -6 93 -1 23 4 44 4 47 1 5 -8
-48 -27 -229 -81 -76 -23 -166 -54 -201 -70 -60 -27 -73 -29 -252 -35 -112 -4
-184 -3 -178 3 20 17 132 60 201 76 240 55 288 68 355 95 40 17 83 28 94 25
11 -2 43 -9 70 -13z m-1305 -115 c0 -2 -7 -20 -15 -40 -20 -47 -15 -49 120
-44 58 2 105 1 105 -3 0 -7 -202 -82 -281 -104 -68 -19 -78 -30 -115 -123 -32
-84 -43 -92 -132 -92 -41 0 -79 -9 -134 -31 -66 -26 -81 -37 -99 -69 l-21 -38
-57 5 c-52 5 -81 0 -188 -33 -52 -16 44 28 119 54 105 37 153 67 218 133 26
27 73 61 104 75 50 23 54 27 43 45 -7 11 -23 19 -39 19 -15 0 -38 5 -51 11
-20 9 -34 7 -71 -9 -25 -12 -46 -17 -46 -13 0 4 98 56 218 116 233 116 322
155 322 141z"/>
<path d="M6120 3155 c0 -5 5 -17 10 -25 5 -8 10 -10 10 -5 0 6 -5 17 -10 25
-5 8 -10 11 -10 5z"/>
<path d="M4810 2979 c0 -5 5 -7 10 -4 6 3 10 8 10 11 0 2 -4 4 -10 4 -5 0 -10
-5 -10 -11z"/>
<path d="M4718 2973 c12 -2 32 -2 45 0 12 2 2 4 -23 4 -25 0 -35 -2 -22 -4z"/>
<path d="M4779 2951 c11 -7 10 -13 -5 -35 -19 -25 -21 -25 -145 -26 -70 0
-140 -3 -158 -6 -26 -5 -35 -1 -61 26 -34 36 -49 34 -32 -5 17 -36 15 -45 -9
-45 -35 0 -221 -78 -297 -124 -85 -53 -165 -118 -188 -155 -12 -17 -1 -11 32
19 55 51 147 116 212 149 60 30 52 20 -16 -22 -83 -51 -192 -165 -220 -230
-11 -26 -7 -24 45 20 32 27 67 56 77 63 18 14 19 13 12 -5 -5 -11 -14 -56 -21
-100 -15 -92 -44 -179 -80 -241 -37 -63 -34 -79 22 -98 26 -9 54 -16 62 -15 9
0 -4 8 -29 16 -40 15 -42 17 -21 24 12 5 79 13 149 19 70 6 147 15 172 20 62
13 62 13 35 -15 -14 -13 -25 -32 -25 -41 0 -12 6 -9 22 12 13 16 26 31 30 32
5 2 8 10 8 17 0 8 17 16 43 20 23 3 80 17 127 30 130 37 183 35 220 -9 20 -26
34 -18 16 9 -9 13 -16 26 -16 28 0 11 180 17 205 7 15 -6 31 -8 34 -4 6 6 -22
30 -42 37 -6 2 10 22 34 45 34 32 52 42 79 42 l35 0 -25 19 c-18 14 -21 23
-14 33 6 7 14 22 17 33 5 15 2 13 -13 -7 -63 -82 -72 -82 -17 0 23 33 38 47
45 40 6 -6 8 0 4 18 -4 20 -2 25 8 19 9 -5 11 -4 6 3 -7 12 42 82 57 82 5 0 5
-5 1 -12 -4 -7 -3 -8 5 -4 9 6 9 11 1 21 -7 9 -6 16 5 25 13 11 14 10 9 -6 -9
-23 -4 -18 21 21 18 30 18 30 -1 15 -21 -16 77 94 109 123 11 10 18 19 16 21
-2 2 -35 0 -74 -5 -89 -10 -203 -11 -190 -1 6 4 11 12 11 17 1 6 5 21 9 34 7
23 5 23 -41 -11 l-49 -35 -88 17 c-48 9 -90 14 -93 11 -3 -3 -2 8 1 24 4 17
10 33 14 36 3 4 40 -2 81 -13 41 -10 86 -21 100 -24 46 -10 -1 15 -69 36 -63
20 -180 28 -152 11z m166 -192 c104 -17 98 -12 92 -88 -8 -90 -51 -221 -90
-272 -45 -60 -53 -59 -52 8 0 32 -6 79 -14 106 -11 38 -18 47 -36 47 -29 0
-37 10 -24 27 9 10 7 18 -7 35 -33 37 -103 61 -179 62 -59 0 -78 -4 -123 -29
-65 -35 -107 -81 -140 -153 -21 -46 -24 -65 -20 -122 3 -44 13 -81 26 -103
l20 -35 -81 -17 c-44 -10 -127 -20 -184 -24 l-103 -6 -6 32 c-3 18 -4 64 -2
102 5 95 75 238 148 304 71 63 209 111 400 137 74 10 285 3 375 -11z m-929
-565 c0 -1 -25 -4 -55 -8 l-54 -7 22 33 c12 18 32 52 44 76 l22 43 11 -68 c6
-37 11 -69 10 -69z"/>
<path d="M4708 2943 c7 -3 16 -2 19 1 4 3 -2 6 -13 5 -11 0 -14 -3 -6 -6z"/>
<path d="M4752 2936 c7 -8 15 -12 17 -11 5 6 -10 25 -20 25 -5 0 -4 -6 3 -14z"/>
<path d="M4828 2923 c7 -3 16 -2 19 1 4 3 -2 6 -13 5 -11 0 -14 -3 -6 -6z"/>
<path d="M4127 2887 c-57 -18 -79 -31 -140 -89 -79 -76 -77 -76 33 -4 41 27
104 64 140 82 74 38 65 41 -33 11z"/>
<path d="M3790 2841 c-30 -16 -110 -111 -94 -111 7 0 154 120 154 126 0 9 -27
2 -60 -15z"/>
<path d="M3016 2658 c-20 -33 -34 -63 -32 -66 4 -4 139 66 211 110 l30 18 -86
0 -86 0 -37 -62z"/>
<path d="M2146 2620 c-28 -11 -88 -39 -135 -62 -47 -24 -87 -43 -88 -44 -5 -1
-32 -120 -38 -164 l-6 -45 118 121 c161 166 203 198 245 190 18 -4 45 -12 60
-19 l28 -12 -41 -42 c-22 -24 -50 -49 -62 -58 -11 -8 -18 -17 -15 -20 7 -7
103 58 136 93 12 13 22 19 22 13 0 -5 8 -7 18 -4 36 9 270 -95 364 -163 26
-18 45 -27 42 -19 -12 29 -196 140 -322 193 -33 14 -50 27 -46 34 5 8 1 9 -10
5 -10 -4 -23 -4 -29 0 -14 9 -30 12 -122 18 -54 3 -82 0 -119 -15z"/>
<path d="M1590 2494 c-69 -12 -141 -27 -160 -33 -19 -6 -73 -20 -120 -31 -105
-26 -184 -50 -320 -100 -78 -29 -139 -43 -235 -55 -313 -40 -294 -34 -533
-154 l-217 -108 -3 -393 c-2 -317 0 -391 11 -387 7 2 39 10 72 17 33 6 89 20
125 30 175 50 624 127 635 109 3 -4 -26 -19 -65 -34 -80 -31 -92 -42 -54 -51
65 -16 490 17 674 53 52 10 154 18 263 20 97 3 177 8 177 13 0 5 -23 73 -51
152 -62 174 -77 221 -89 273 l-9 40 24 -30 c14 -16 30 -42 36 -57 6 -16 15
-28 20 -28 5 0 5 -7 2 -17 -4 -10 -2 -14 4 -10 6 4 17 -1 24 -10 12 -14 12
-16 0 -8 -10 5 -12 4 -7 -4 4 -6 11 -9 16 -6 5 3 14 -5 21 -17 7 -13 10 -24 8
-25 -2 -1 -1 -4 3 -8 7 -7 3 42 -7 91 -17 78 85 189 248 269 149 74 272 102
367 85 36 -6 85 -23 110 -37 55 -31 129 -100 141 -131 12 -32 -11 -74 -56
-101 -45 -26 -49 -26 -42 -1 7 29 -11 88 -35 112 -14 14 -28 19 -48 15 -33 -7
-44 1 -29 19 24 29 -70 44 -143 24 -55 -16 -91 -51 -133 -131 -29 -56 -39 -87
-43 -139 -4 -60 -2 -68 23 -98 15 -18 33 -32 41 -32 27 0 14 -17 -26 -35 -22
-10 -38 -20 -36 -23 8 -7 121 54 213 116 48 33 106 69 128 82 l40 23 -29 -31
c-53 -57 -13 -34 96 56 58 49 117 96 130 105 13 9 18 16 11 16 -6 1 -15 -3
-18 -9 -12 -19 -22 -10 -23 19 0 23 3 29 16 25 9 -3 6 3 -8 13 -14 9 -61 52
-105 95 -89 87 -90 85 40 52 27 -7 52 -11 54 -9 8 8 -117 57 -179 71 -81 17
-216 18 -296 1 -50 -11 -65 -11 -79 0 -17 11 -16 13 6 22 54 20 184 34 277 29
53 -3 84 -2 67 2 -59 15 -257 10 -328 -9 -37 -10 -70 -14 -73 -9 -9 14 -24 9
-18 -7 4 -9 1 -15 -7 -15 -8 0 -42 -13 -77 -30 -62 -29 -63 -29 -82 -10 -13
13 -20 15 -20 7 0 -7 6 -19 13 -26 10 -10 7 -16 -12 -30 -13 -10 -21 -23 -17
-30 4 -6 2 -11 -5 -11 -7 0 -10 -3 -6 -6 3 -3 16 2 29 11 20 15 20 17 3 11
-20 -6 -20 -6 -1 9 24 18 38 19 54 3 9 -9 0 -18 -39 -41 -35 -20 -55 -25 -62
-18 -13 13 -73 -28 -153 -106 l-61 -60 -84 -5 c-46 -3 -111 -15 -145 -27 l-61
-20 -39 20 c-34 18 -50 20 -132 15 -51 -4 -130 -15 -175 -26 -45 -11 -86 -20
-92 -19 -24 1 203 108 230 108 17 1 62 10 100 21 38 11 83 20 99 20 33 0 92
33 106 61 9 15 22 19 63 19 29 0 75 3 104 6 l52 7 -5 34 c-7 57 86 290 171
430 l26 43 -78 -1 c-43 -1 -134 -12 -203 -25z m536 -359 c14 -13 10 -17 -32
-35 -34 -15 -57 -19 -83 -14 l-36 7 60 29 c70 33 72 33 91 13z m-308 -187 c-8
-7 -25 -22 -38 -33 l-25 -20 20 25 c23 28 36 40 48 40 5 0 2 -6 -5 -12z m-75
-330 c61 -177 64 -172 -53 -77 l-103 83 52 48 c29 26 56 48 60 48 5 0 25 -46
44 -102z"/>
<path d="M2375 2413 c35 -9 41 -23 9 -23 -40 0 -128 -26 -187 -57 -73 -37 -51
-37 34 0 70 30 80 32 194 31 100 -1 135 -5 208 -28 49 -14 103 -33 120 -42 30
-14 31 -14 12 1 -47 39 -158 78 -315 111 -59 13 -123 18 -75 7z"/>
<path d="M2945 2222 c18 -28 28 -59 32 -99 5 -53 2 -68 -30 -136 -28 -60 -53
-94 -121 -163 l-86 -87 1 -81 c1 -60 3 -72 9 -46 8 40 0 53 65 -105 20 -49 41
-94 45 -100 4 -5 10 -19 13 -30 4 -11 -16 5 -45 35 -28 30 -42 42 -30 25 11
-16 34 -43 51 -59 17 -17 31 -36 31 -43 0 -24 18 -13 23 13 3 20 -15 65 -68
170 -40 78 -76 160 -80 180 -6 34 -4 40 22 59 15 11 66 55 112 97 46 43 87 78
92 78 21 0 27 41 19 136 -6 82 -12 108 -33 141 -15 23 -31 44 -37 48 -7 4 0
-11 15 -33z"/>
<path d="M4510 2218 c0 -31 11 -68 19 -68 4 0 8 20 8 45 0 31 -5 45 -14 45 -7
0 -13 -10 -13 -22z"/>
<path d="M1855 1609 c-5 -14 0 -28 14 -43 20 -21 20 -23 3 -40 -16 -17 -16
-18 7 -11 13 4 41 2 63 -6 33 -11 38 -16 34 -35 -6 -22 -5 -22 23 -8 16 8 42
17 58 19 15 2 46 11 68 19 l40 16 -37 -6 c-51 -8 -127 12 -183 47 -26 16 -54
28 -62 27 -9 -2 -18 3 -21 11 -3 8 0 11 7 7 7 -5 9 -1 5 8 -8 21 -11 20 -19
-5z m55 -37 c0 -5 28 -23 61 -40 72 -37 57 -44 -17 -8 -57 27 -87 56 -60 56 9
0 16 -4 16 -8z"/>
<path d="M2382 1593 c-5 -10 -6 -27 -2 -38 6 -16 8 -14 12 15 7 41 3 49 -10
23z"/>
<path d="M2211 1493 c0 -25 1 -26 9 -8 12 27 12 35 0 35 -5 0 -10 -12 -9 -27z"/>
<path d="M3150 1420 c-12 -8 -9 -10 13 -10 16 0 38 -5 50 -11 21 -10 21 -9 -2
10 -26 23 -39 25 -61 11z"/>
</g>
</svg>
